<svg xmlns="http://www.w3.org/2000/svg" width="1024" height="1024" viewBox="0 0 1024 1024">
  <defs><linearGradient id="surface" x2="1" y2="1"><stop stop-color="#2b2d2e"/><stop offset="1" stop-color="#17191a"/></linearGradient><linearGradient id="coral" x2=".4" y2="1"><stop stop-color="#ffa38e"/><stop offset="1" stop-color="#ed7c69"/></linearGradient></defs>
  <rect x="24" y="24" width="976" height="976" rx="224" fill="url(#surface)" stroke="#414443" stroke-width="4"/>
  <g transform="translate(128 116) scale(24)"><path d="M5 13 4 4.5c0-1 1-1.5 1.8-.8L12 8a20 20 0 0 1 8 0l6.2-4.3c.8-.7 1.8-.2 1.8.8L27 13c1 2 1.5 4 1 6.5C27.2 25 22.5 28 16 28S4.8 25 4 19.5C3.5 17 4 15 5 13Z" fill="url(#coral)"/></g>
</svg>
